<?xml version="1.0" encoding="UTF-8"?>
<svg width="34px" height="36px" viewBox="0 0 34 36" version="1.1" xmlns="http://www.w3.org/2000/svg" xmlns:xlink="http://www.w3.org/1999/xlink">
    <!-- Generator: Sketch 53.2 (72643) - https://sketchapp.com -->
    <title>Artboard Copy</title>
    <desc>Created with Sketch.</desc>
    <g id="Artboard-Copy" stroke="none" stroke-width="1" fill="none" fill-rule="evenodd">
        <path d="M26.88,30.8 L21.92,30.8 L21.92,24.4 L11.84,24.4 L11.84,30.8 L6.88,30.8 L6.88,16.08 L16.96,6.48 L27.04,16.08 L27.04,30.8 L26.88,30.8 Z M30.24,14.8 L30.24,14.8 L30.24,14.8 L16.8,2 L-4.26325641e-14,18 L2.4,20.24 L3.36,19.28 L3.36,34 L15.04,34 L15.04,27.6 L18.4,27.6 L18.4,34 L30.08,34 L30.08,34 L30.08,19.28 L31.04,20.24 L33.44,18 L30.24,14.8 Z" id="Shape-Copy" fill="#C1C1C1" fill-rule="nonzero"></path>
    </g>
</svg>