<?xml version="1.0" encoding="UTF-8"?>
<svg width="34px" height="36px" viewBox="0 0 34 36" version="1.1" xmlns="http://www.w3.org/2000/svg" xmlns:xlink="http://www.w3.org/1999/xlink">
    <!-- Generator: Sketch 53.2 (72643) - https://sketchapp.com -->
    <title>Artboard Copy 3</title>
    <desc>Created with Sketch.</desc>
    <g id="Artboard-Copy-3" stroke="none" stroke-width="1" fill="none" fill-rule="evenodd">
        <path d="M24,22.64 C25.76,20.4 26.88,17.68 26.88,14.8 C26.88,7.76 20.8,2 13.44,2 C6.08,2 0,7.76 0,14.8 C0,21.84 6.08,27.6 13.44,27.6 C16.48,27.6 19.36,26.64 21.76,24.88 L31.36,34 L33.76,31.76 L24,22.64 Z M13.44,24.4 C7.84,24.4 3.36,20.08 3.36,14.8 C3.36,9.52 7.84,5.2 13.44,5.2 C19.04,5.2 23.52,9.52 23.52,14.8 C23.52,20.08 19.04,24.4 13.44,24.4 Z" id="Shape-Copy" fill="#C1C1C1" fill-rule="nonzero"></path>
    </g>
</svg>