<?xml version="1.0" encoding="UTF-8"?>
<svg width="34px" height="36px" viewBox="0 0 34 36" version="1.1" xmlns="http://www.w3.org/2000/svg" xmlns:xlink="http://www.w3.org/1999/xlink">
    <!-- Generator: Sketch 53.2 (72643) - https://sketchapp.com -->
    <title>Artboard</title>
    <desc>Created with Sketch.</desc>
    <g id="Artboard" stroke="none" stroke-width="1" fill="none" fill-rule="evenodd">
        <path d="M23.7131164,21.6475204 L32.7377625,29.9702151 L29.7931963,32.6825721 L20.9353313,24.3775379 C18.7021503,25.8925255 16.0791305,26.7 13.3412322,26.7 C6.30351974,26.7 0.5,21.2539906 0.5,14.6 C0.5,7.94600942 6.30351974,2.5 13.3412322,2.5 C20.3789447,2.5 26.1824645,7.94600942 26.1824645,14.6 C26.1824645,17.0773199 25.2981704,19.5176917 23.7131164,21.6475204 Z M13.5,22.5 C18.488897,22.5 22.5,18.6853923 22.5,14 C22.5,9.31460771 18.488897,5.5 13.5,5.5 C8.51110304,5.5 4.5,9.31460771 4.5,14 C4.5,18.6853923 8.51110304,22.5 13.5,22.5 Z" id="Shape-Copy" stroke="#FD9C0A" fill="#FD9C0A" fill-rule="nonzero"></path>
    </g>
</svg>